<?xml version="1.0"?>
<svg xmlns="http://www.w3.org/2000/svg" height="512px" viewBox="0 -4 512.00349 512" width="512px"><g transform="matrix(-1 0 0 1 512.003 0)"><path d="m388.402344 240.539062 40.605468 35.847657c1.679688 1.519531 3.890626 2.3125 6.152344 2.199219 2.261719-.113282 4.382813-1.117188 5.902344-2.792969l68.734375-75.90625c1.519531-1.679688 2.308594-3.890625 2.195313-6.152344-.113282-2.257813-1.117188-4.382813-2.796876-5.902344l-40.605468-35.847656c-3.492188-3.164063-8.890625-2.894531-12.054688.597656l-68.730468 75.90625c-1.519532 1.675781-2.308594 3.890625-2.199219 6.148438.113281 2.261719 1.121093 4.386719 2.796875 5.902343zm0 0" data-original="#000000" class="active-path" fill="#000000"/><path d="m181.832031 55.070312c10.503907 1.097657 21.082031 1.277344 31.613281.539063 14.257813.101563 28.449219 1.96875 42.246094 5.558594 15.492188 4.414062 33.375 13.457031 40.636719 28.722656 5.371094 14.296875 3.550781 30.304687-4.902344 43.027344-11.71875 18.464843-25.402343 35.605469-40.804687 51.128906-23.027344 25.425781-48.570313 53.636719-63.003906 69.578125l50.601562 45.824219c15.921875-17.585938 60.425781-66.730469 74.460938-82.230469 19.253906-21.265625 55.957031-34.859375 64.84375-13.4375 1.113281 2.695312 3.527343 4.632812 6.398437 5.132812 2.871094.503907 5.800781-.5 7.757813-2.660156l44.378906-49.011718c1.953125-2.140626 2.675781-5.125 1.921875-7.921876-.753907-2.792968-2.882813-5.007812-5.644531-5.875-6.394532-1.953124-11.71875-6.421874-14.75-12.378906-5.335938-10.109375-3.660157-20.171875-4.523438-31.0625-1.96875-11.472656-8.3125-21.730468-17.691406-28.621094l-43.953125-39.796874c-5.234375-4.738282-10.871094-9.015626-16.847657-12.78125-28.726562-17.308594-62.996093-22.945313-95.757812-15.753907-17.609375 3.445313-34.617188 9.460938-50.476562 17.859375-8.941407 4.765625-25.085938 15.046875-18.035157 27.238282 2.742188 3.777343 6.90625 6.277343 11.53125 6.921874zm0 0" data-original="#000000" class="active-path" fill="#000000"/><path d="m58.355469 498.199219c4.507812 4.363281 10.871093 6.234375 17.023437 5.007812 6.152344-1.230469 11.308594-5.402343 13.796875-11.160156 34.582031-60.027344 81.597657-111.960937 137.898438-152.320313 5.589843-3.105468 9.261719-8.796874 9.792969-15.167968s-2.148438-12.589844-7.148438-16.578125c-16.894531-15.273438-33.761719-30.546875-50.601562-45.824219-3.585938-3.753906-8.566407-5.859375-13.757813-5.808594-5.191406.050782-10.128906 2.25-13.640625 6.074219-1.171875 1.3125-1.761719 3.042969-1.636719 4.796875.121094 1.753906.949219 3.386719 2.289063 4.523438l28.195312 24.890624c1.71875 1.480469 2.765625 3.589844 2.910156 5.855469.144532 2.261719-.625 4.488281-2.140624 6.175781-1.492188 1.703126-3.597657 2.742188-5.855469 2.882813-2.257813.144531-4.480469-.617187-6.175781-2.113281l-24.589844-21.699219c-1.4375-1.277344-3.363282-1.867187-5.269532-1.613281s-3.609374 1.324218-4.664062 2.933594l-.074219.113281c-1.820312 2.761719-1.339843 6.445312 1.132813 8.648437l27.660156 24.414063c1.71875 1.484375 2.765625 3.59375 2.910156 5.855469.144532 2.265624-.628906 4.488281-2.140625 6.179687-1.492187 1.699219-3.597656 2.738281-5.855469 2.882813-2.257812.144531-4.480468-.617188-6.175781-2.117188l-25.039062-22.089844c-1.390625-1.226562-3.234375-1.8125-5.078125-1.609375s-3.515625 1.171875-4.605469 2.671875c-30.164063 40.78125-66.5 76.609375-107.699219 106.191406-5.585937 3.121094-9.246094 8.828126-9.753906 15.207032-.511719 6.378906 2.199219 12.589844 7.21875 16.558594 17.050781 15.390624 33.679688 31.242187 51.074219 46.238281zm0 0" data-original="#000000" class="active-path" fill="#000000"/></g> </svg>
