<?xml version="1.0" encoding="iso-8859-1"?>
<!-- Generator: Adobe Illustrator 19.0.0, SVG Export Plug-In . SVG Version: 6.00 Build 0)  -->
<svg version="1.1" id="Capa_1" xmlns="http://www.w3.org/2000/svg" xmlns:xlink="http://www.w3.org/1999/xlink" x="0px" y="0px"
	 viewBox="0 0 405.943 405.943" style="enable-background:new 0 0 405.943 405.943;" xml:space="preserve">
<path style="fill:#00BBD3;" d="M202.971,50.155c-50.678,0-92.473,21.943-121.731,49.11l1.567-83.592C82.808,6.792,76.016,0,67.657,0
	c0,0,0,0-0.522,0c-8.359,0-15.673,6.792-15.673,15.673l-2.09,125.388c0,4.18,1.567,8.359,4.702,11.494
	c3.135,3.135,6.792,4.702,11.494,4.702l122.253-2.09c8.882,0,15.673-7.314,15.151-16.196c0-8.359-7.314-15.151-15.673-15.151
	c0,0,0,0-0.522,0l-86.204,1.567c24.033-22.988,59.559-42.841,102.4-42.841c87.249,0,145.763,75.233,145.763,145.763
	c0,87.249-75.233,146.286-145.763,146.286c-61.127,0-145.763-50.678-145.763-146.286c0-8.882-6.792-15.673-15.673-15.673
	s-15.673,6.792-15.673,15.673c0,41.273,17.763,86.204,47.543,119.118c33.959,37.616,79.935,58.514,129.567,58.514
	c106.057,0,177.11-91.951,177.11-177.633C380.082,141.584,309.029,50.155,202.971,50.155z"/>
<g>
</g>
<g>
</g>
<g>
</g>
<g>
</g>
<g>
</g>
<g>
</g>
<g>
</g>
<g>
</g>
<g>
</g>
<g>
</g>
<g>
</g>
<g>
</g>
<g>
</g>
<g>
</g>
<g>
</g>
</svg>
